<?xml version="1.0" encoding="UTF-8"?>
<svg id="Calque_2" data-name="Calque 2" xmlns="http://www.w3.org/2000/svg" viewBox="0 0 399.82 399.91">
  <defs>
    <style>
      .cls-1 {
        fill: none;
      }

      .cls-2 {
        fill: #ffe4e4;
      }

      .cls-3 {
        fill: #fff;
      }
    </style>
  </defs>
  <g id="Layer_1" data-name="Layer 1">
    <path class="cls-1" d="M190.97,399.91H0V0h399.82v399.91h-208.85M252.03,171.2c7.32,15.24,14.72,30.44,21.88,45.76,1.71,3.66,4.14,5.02,8.03,4.99,13-.11,26-.03,39-.05,5.41-.01,6.04-.99,3.76-5.64-16.58-33.83-33.13-67.68-49.77-101.48-6.9-14.03-14.4-27.78-20.75-42.05-2.25-5.05-4.83-6.09-9.72-6.04-20.33.22-40.66.09-60.99.09-7.97,0-8.03,0-8.03,8.04.01,32.83.06,65.66.12,98.49.01,6.54.04,6.58-6.67,6.59-27.5.02-55,.11-82.49-.09-4.49-.03-5.86,1.55-5.8,5.74.15,10.16.18,20.33,0,30.49-.08,4.44,1.35,6.01,6.07,5.98,27.66-.23,55.33-.04,82.99-.19,4.38-.02,6.15.95,6.02,5.81-.37,13.16-.15,26.33-.17,39.49-.02,20-.08,40-.05,60,0,7.03.84,7.77,7.69,7.77,10.83,0,21.67-.26,32.49.12,5.04.18,6.46-1.26,6.45-6.38-.17-70.99-.11-141.99-.11-212.99,0-1.87,0-3.75,0-5.62.45-.07.91-.14,1.36-.21,9.54,20.2,19.09,40.41,28.7,61.38Z"/>
    <path class="cls-3" d="M251.99,170.82c-9.58-20.59-19.12-40.79-28.67-60.99-.45.07-.91.14-1.36.21,0,1.87,0,3.75,0,5.62,0,71-.05,141.99.11,212.99.01,5.12-1.41,6.55-6.45,6.38-10.82-.38-21.66-.11-32.49-.12-6.85,0-7.68-.75-7.69-7.77-.03-20,.03-40,.05-60,.02-13.17-.2-26.34.17-39.49.14-4.86-1.63-5.84-6.02-5.81-27.66.15-55.33-.04-82.99.19-4.72.04-6.15-1.54-6.07-5.98.17-10.16.14-20.33,0-30.49-.06-4.19,1.3-5.77,5.8-5.74,27.5.2,55,.11,82.49.09,6.72,0,6.68-.04,6.67-6.59-.05-32.83-.1-65.66-.12-98.49,0-8.03.06-8.04,8.03-8.04,20.33,0,40.67.13,60.99-.09,4.89-.05,7.48.99,9.72,6.04,6.35,14.27,13.85,28.02,20.75,42.05,16.63,33.81,33.19,67.65,49.77,101.48,2.28,4.65,1.65,5.63-3.76,5.64-13,.02-26-.06-39,.05-3.89.03-6.32-1.33-8.03-4.99-7.16-15.31-14.57-30.51-21.92-46.14M211.11,330.88c.31-.21.62-.41.93-.62-.14-.08-.27-.24-.41-.24-4.16-.05-8.32-.1-12.48-.11-5.73-.02-11.47,0-17.2,0,0,.33.02.67.03,1,9.47,0,18.94,0,29.12-.02Z"/>
    <path class="cls-2" d="M210.75,330.89c-9.83.01-19.3.01-28.76.01,0-.33-.02-.67-.03-1,5.73,0,11.47-.01,17.2,0,4.16.01,8.32.06,12.48.11.14,0,.27.16.41.24-.31.21-.62.41-1.29.63Z"/>
  </g>
</svg>